<?xml version="1.0" encoding="UTF-8" standalone="no"?>
<!-- Created with Inkscape (http://www.inkscape.org/) -->

<svg
   width="131.74342mm"
   height="41.121113mm"
   viewBox="0 0 131.74342 41.121112"
   version="1.1"
   id="svg1"
   inkscape:version="1.4 (e7c3feb100, 2024-10-09)"
   sodipodi:docname="logo.svg"
   xmlns:inkscape="http://www.inkscape.org/namespaces/inkscape"
   xmlns:sodipodi="http://sodipodi.sourceforge.net/DTD/sodipodi-0.dtd"
   xmlns="http://www.w3.org/2000/svg"
   xmlns:svg="http://www.w3.org/2000/svg">
  <sodipodi:namedview
     id="namedview1"
     pagecolor="#ffffff"
     bordercolor="#000000"
     borderopacity="0.25"
     inkscape:showpageshadow="2"
     inkscape:pageopacity="0.0"
     inkscape:pagecheckerboard="0"
     inkscape:deskcolor="#d1d1d1"
     inkscape:document-units="mm"
     inkscape:zoom="1.8311178"
     inkscape:cx="278.24534"
     inkscape:cy="140.35143"
     inkscape:window-width="1920"
     inkscape:window-height="1131"
     inkscape:window-x="0"
     inkscape:window-y="0"
     inkscape:window-maximized="1"
     inkscape:current-layer="layer1" />
  <defs
     id="defs1" />
  <g
     inkscape:label="Layer 1"
     inkscape:groupmode="layer"
     id="layer1"
     transform="translate(-27.835424,-107.76528)">
    <path
       d="m 27.835424,148.88639 10.744667,-15.24662 -9.544145,-14.56633 h 9.384075 l 2.381035,3.88169 c 0.533565,0.86704 0.973756,1.70073 1.320573,2.50108 0.360157,0.78701 0.693635,1.54068 1.000435,2.26099 0.3068,-0.72031 0.640278,-1.47398 1.000434,-2.26099 0.373496,-0.80035 0.827026,-1.63404 1.360591,-2.50108 l 2.421052,-3.88169 7.470591,2.17539 -7.690687,12.17084 10.524571,15.46672 h -9.664197 l -3.241408,-5.12222 c -0.626939,-1.00044 -1.093808,-1.81413 -1.400608,-2.44106 -0.3068,-0.62694 -0.60693,-1.22053 -0.900391,-1.78078 -0.293461,0.56025 -0.593592,1.16051 -0.900391,1.80078 -0.3068,0.62694 -0.787009,1.43396 -1.440626,2.42106 l -3.421486,5.12222 z"
       id="path2"
       style="-inkscape-font-specification:'Inter, Heavy';fill:#6699cc;fill-opacity:1;stroke-width:6.14668;paint-order:stroke fill markers"
       aria-label="X"
       sodipodi:nodetypes="cccccccccccccccsccccc" />
    <path
       d="m 27.835424,147.45087 10.744667,-15.24662 -9.544145,-14.56633 h 9.384075 l 2.381035,3.88169 c 0.533565,0.86704 0.973756,1.70073 1.320573,2.50108 0.360157,0.78701 0.693635,1.54068 1.000435,2.26099 0.3068,-0.72031 0.640278,-1.47398 1.000434,-2.26099 0.373496,-0.80035 0.827026,-1.63404 1.360591,-2.50108 l 2.421052,-3.88169 7.470591,2.17539 -7.690687,12.17084 10.524571,15.46672 h -9.664197 l -3.241408,-5.12222 c -0.626939,-1.00044 -1.093808,-1.81413 -1.400608,-2.44106 -0.3068,-0.62694 -0.60693,-1.22053 -0.900391,-1.78078 -0.293461,0.56025 -0.593592,1.16051 -0.900391,1.80078 -0.3068,0.62694 -0.787009,1.43396 -1.440626,2.42106 l -3.421486,5.12222 z"
       id="path3"
       style="-inkscape-font-specification:'Inter, Heavy';fill:#003b6d;fill-opacity:1;stroke-width:6.14668;paint-order:stroke fill markers"
       aria-label="X"
       sodipodi:nodetypes="cccccccccccccccsccccc" />
    <path
       d="m 27.88018,145.7173 10.744667,-15.24662 -9.544145,-14.56633 h 9.384075 l 2.381035,3.88169 q 0.800347,1.30056 1.320573,2.50108 0.540235,1.18052 1.000435,2.26099 0.4602,-1.08047 1.000434,-2.26099 0.560244,-1.20052 1.360591,-2.50108 l 2.421052,-3.88169 h 9.143971 l -9.364067,14.34623 10.524571,15.46672 h -9.664197 l -3.241408,-5.12222 q -0.940408,-1.50066 -1.400608,-2.44106 -0.4602,-0.94041 -0.900391,-1.78078 -0.440192,0.84037 -0.900391,1.80078 -0.4602,0.94041 -1.440626,2.42106 l -3.421486,5.12222 z"
       id="text1"
       style="-inkscape-font-specification:'Inter, Heavy';stroke-width:6.14668;paint-order:stroke fill markers"
       aria-label="X" />
    <path
       sodipodi:type="star"
       style="fill:#000000;fill-opacity:1;stroke-width:0.529167;paint-order:stroke fill markers"
       id="path1"
       inkscape:flatsided="false"
       sodipodi:sides="3"
       sodipodi:cx="7.8369598"
       sodipodi:cy="102.24928"
       sodipodi:r1="6.8874035"
       sodipodi:r2="13.774807"
       sodipodi:arg1="0.78539816"
       sodipodi:arg2="1.8325957"
       inkscape:rounded="0"
       inkscape:randomized="0"
       d="M 12.70709,107.11941 4.2717776,115.55472 1.1842389,104.03187 -1.9032997,92.509024 9.619551,95.596562 21.142402,98.6841 Z"
       transform="matrix(0.48924624,-0.42246273,0.42246273,0.48924624,6.1924112,68.416328)" />
    <path
       style="-inkscape-font-specification:'Inter, Heavy';stroke-width:0.349896;paint-order:stroke fill markers"
       d="m 58.980081,147.69519 v -20.32155 h 5.26561 v 2.59312 h 0.132301 q 0.423366,-1.1378 1.46855,-1.95807 1.045184,-0.82027 2.685726,-0.82027 1.468549,0 2.778337,0.78058 1.323017,0.78058 2.156518,2.46081 0.833501,1.667 0.833501,4.35273 0,2.55342 -0.79381,4.23366 -0.793811,1.68023 -2.116828,2.51373 -1.323018,0.82027 -2.910639,0.82027 -1.561161,0 -2.606345,-0.74089 -1.031953,-0.75412 -1.49501,-1.87868 h -0.07938 v 7.96456 z m 7.5412,-9.41988 q 1.098104,0 1.693462,-0.92612 0.608588,-0.92611 0.608588,-2.56665 0,-1.65377 -0.608588,-2.57988 -0.595358,-0.93935 -1.693462,-0.93935 -1.084875,0 -1.719923,0.93935 -0.635048,0.92611 -0.635048,2.57988 0,1.60085 0.635048,2.55342 0.635048,0.93935 1.719923,0.93935 z m 17.110444,4.15427 q -3.558917,0 -5.596364,-2.01099 -2.024217,-2.02421 -2.024217,-5.60959 0,-2.28882 0.912882,-3.99551 0.926112,-1.71993 2.606345,-2.6725 1.680232,-0.95257 3.969052,-0.95257 2.2359,0 3.889672,0.92611 1.653772,0.91288 2.553424,2.61958 0.912882,1.69346 0.912882,4.04843 v 1.21718 h -9.631568 q 0.05292,1.37593 0.72766,2.03744 0.687969,0.66151 1.786074,0.66151 0.820271,0 1.402398,-0.33075 0.582128,-0.34399 0.820271,-0.95258 l 4.683482,0.68797 q -0.568897,1.99776 -2.381431,3.16202 -1.799304,1.16425 -4.630562,1.16425 z m -2.368201,-9.3405 h 4.577641 q -0.251374,-2.16975 -2.288821,-2.16975 -2.037447,0 -2.28882,2.16975 z m 11.778687,9.0759 v -14.79134 h 5.159768 v 2.83126 h 0.158762 q 0.396906,-1.57439 1.270097,-2.28882 0.886422,-0.72766 2.063912,-0.72766 0.67473,0 1.34947,0.21168 v 4.52472 q -0.3969,-0.14553 -0.97903,-0.19845 -0.5689,-0.0661 -0.97903,-0.0661 -1.177488,0 -1.958068,0.76735 -0.767351,0.76735 -0.767351,2.03745 v 7.69996 z m 21.079499,-14.79134 v 3.86321 h -2.5402 v 6.17849 q 0,0.92612 1.0055,0.92612 0.23814,0 0.68796,-0.0529 0.46306,-0.0662 0.60859,-0.11908 l 0.63505,3.79707 q -0.91288,0.25137 -1.71992,0.33075 -0.80704,0.0926 -1.52147,0.0926 -5.01424,0 -5.01424,-4.48503 v -6.66801 h -1.87868 v -3.86321 h 1.87868 v -3.51923 h 5.31853 v 3.51923 z m 7.55826,6.48279 v 8.30855 h -5.31853 v -14.79134 h 4.98777 l 0.0926,3.33401 q 0.54244,-1.50824 1.65378,-2.51374 1.11133,-1.00549 3.00325,-1.00549 1.57439,0 2.72541,0.71443 1.16426,0.71443 1.79931,1.97129 0.63504,1.25687 0.63504,2.87095 v 9.41989 h -5.31853 v -8.30855 q 0,-1.09811 -0.55566,-1.71993 -0.55567,-0.63504 -1.56116,-0.63504 -0.97904,0 -1.56117,0.63504 -0.58212,0.62182 -0.58212,1.71993 z m 19.43896,8.57315 q -3.55892,0 -5.59637,-2.01099 -2.02422,-2.02421 -2.02422,-5.60959 0,-2.28882 0.91289,-3.99551 0.92611,-1.71993 2.60634,-2.6725 1.68023,-0.95257 3.96905,-0.95257 2.2359,0 3.88967,0.92611 1.65378,0.91288 2.55343,2.61958 0.91288,1.69346 0.91288,4.04843 v 1.21718 h -9.63157 q 0.0529,1.37593 0.72766,2.03744 0.68797,0.66151 1.78608,0.66151 0.82027,0 1.4024,-0.33075 0.58212,-0.34399 0.82027,-0.95258 l 4.68348,0.68797 q -0.5689,1.99776 -2.38143,3.16202 -1.79931,1.16425 -4.63056,1.16425 z m -2.36821,-9.3405 h 4.57764 q -0.25137,-2.16975 -2.28882,-2.16975 -2.03744,0 -2.28882,2.16975 z m 20.43122,-5.71544 v 3.86321 h -2.54019 v 6.17849 q 0,0.92612 1.00549,0.92612 0.23814,0 0.68797,-0.0529 0.46305,-0.0662 0.60859,-0.11908 l 0.63504,3.79707 q -0.91288,0.25137 -1.71992,0.33075 -0.80704,0.0926 -1.52147,0.0926 -5.01423,0 -5.01423,-4.48503 v -6.66801 h -1.87869 v -3.86321 h 1.87869 v -3.51923 h 5.31853 v 3.51923 z"
       id="text2"
       aria-label="pertnet" />
  </g>
</svg>
