<?xml version="1.0" encoding="UTF-8" standalone="no"?>
<!-- Created with Inkscape (http://www.inkscape.org/) -->

<svg
   width="179.79689mm"
   height="235.86324mm"
   viewBox="0 0 179.79689 235.86324"
   version="1.1"
   id="svg1"
   sodipodi:docname="pentagons-2.svg"
   inkscape:version="1.4 (e7c3feb100, 2024-10-09)"
   xmlns:inkscape="http://www.inkscape.org/namespaces/inkscape"
   xmlns:sodipodi="http://sodipodi.sourceforge.net/DTD/sodipodi-0.dtd"
   xmlns="http://www.w3.org/2000/svg"
   xmlns:svg="http://www.w3.org/2000/svg">
  <sodipodi:namedview
     id="namedview1"
     pagecolor="#ffffff"
     bordercolor="#000000"
     borderopacity="0.25"
     inkscape:showpageshadow="2"
     inkscape:pageopacity="0.0"
     inkscape:pagecheckerboard="0"
     inkscape:deskcolor="#d1d1d1"
     inkscape:document-units="mm"
     inkscape:zoom="0.37228755"
     inkscape:cx="619.14507"
     inkscape:cy="698.38489"
     inkscape:window-width="1920"
     inkscape:window-height="1163"
     inkscape:window-x="0"
     inkscape:window-y="0"
     inkscape:window-maximized="1"
     inkscape:current-layer="g14" />
  <defs
     id="defs1" />
  <g
     inkscape:label="Layer 1"
     inkscape:groupmode="layer"
     id="layer1"
     transform="translate(-27.428235,-55.708098)">
    <g
       id="g14"
       transform="translate(-0.50253808,21.609137)">
      <path
         d="m 47.850186,231.82346 29.47433,-32.72999 v 0 l 40.236224,17.91689 -5e-5,4.6e-4 -4.60643,43.8035 -0.002,6.1e-4 -43.081624,9.15452 -3.1e-4,-3.9e-4 z"
         style="fill:#009966;fill-opacity:1;stroke:#ffffff;stroke-width:0.2;stroke-dasharray:none;stroke-opacity:1"
         id="path3" />
      <path
         d="m 186.63888,158.48001 -11.54936,-17.44337 -3e-5,-8e-5 c 0.009,-0.0117 13.02042,-16.37456 13.02042,-16.37456 l 2e-4,8e-5 c 0.0693,0.0259 19.59664,7.32319 19.59664,7.32319 l -4e-5,8.8e-4 c -0.006,0.1473 -0.90911,20.89983 -0.90911,20.89983 l -2.2e-4,1e-4 c -0.0713,0.0198 -20.1585,5.59393 -20.1585,5.59393"
         style="fill:#089a5c;fill-opacity:1;stroke:#ffffff;stroke-width:0.2;stroke-dasharray:none;stroke-opacity:1"
         id="path4" />
      <path
         d="m 151.52856,187.06838 30.38642,12.09525 1.1e-4,6e-5 c -0.003,0.0457 -2.11282,32.63671 -2.11282,32.63671 l -3.4e-4,9e-5 c -0.10088,0.0257 -31.69235,8.07572 -31.69235,8.07572 l -7e-4,-9.9e-4 c -0.11075,-0.17537 -17.47326,-27.64485 -17.47326,-27.64485 l 1.2e-4,-2.2e-4 c 0.0666,-0.0801 20.89283,-25.16176 20.89283,-25.16176"
         style="fill:#119b53;fill-opacity:1;stroke:#ffffff;stroke-width:0.2;stroke-dasharray:none;stroke-opacity:1"
         id="path5" />
      <path
         d="m 94.857806,122.7737 -16.28596,-2.47675 -1.2e-4,-3e-5 c -0.006,-0.0344 -2.67735,-16.25418 -2.67735,-16.25418 l 1.5e-4,-8e-5 c 0.0414,-0.0213 14.63136,-7.569061 14.63136,-7.569061 l 4e-4,4e-4 c 0.066,0.0653 11.719574,11.575971 11.719574,11.575971 l -4e-5,1.1e-4 c -0.0206,0.0417 -7.388014,14.72362 -7.388014,14.72362"
         style="fill:#199c4a;fill-opacity:1;stroke:#ffffff;stroke-width:0.2;stroke-dasharray:none;stroke-opacity:1"
         id="path6" />
      <path
         d="m 125.64408,134.15131 -12.86502,-34.379401 -6e-5,-2.7e-4 c 0.0816,-0.0646 28.72057,-22.85959 28.72057,-22.85959 l 1.9e-4,2.5e-4 c 0.0758,0.05 30.61586,20.25114 30.61586,20.25114 l -2.1e-4,0.001 c -0.0483,0.17452 -9.7991,35.374491 -9.7991,35.374491 l -2.8e-4,6e-5 c -0.0907,0.004 -36.67195,1.61228 -36.67195,1.61228"
         style="fill:#229d40;fill-opacity:1;stroke:#ffffff;stroke-width:0.2;stroke-dasharray:none;stroke-opacity:1"
         id="path7" />
      <path
         d="m 98.306626,172.4544 7.201474,-25.48128 9e-5,-1.8e-4 c 0.094,-0.003 26.45929,-1.02565 26.45929,-1.02565 l 1e-5,2.2e-4 c 0.0195,0.0527 9.15165,24.84756 9.15165,24.84756 l -5.3e-4,4.2e-4 c -0.0879,0.0692 -20.80291,16.38158 -20.80291,16.38158 l -1.8e-4,-8e-5 c -0.0466,-0.0314 -22.008894,-14.72259 -22.008894,-14.72259"
         style="fill:#2a9e37;fill-opacity:1;stroke:#ffffff;stroke-width:0.2;stroke-dasharray:none;stroke-opacity:1"
         id="path8" />
      <path
         d="m 46.452386,73.759449 -0.98567,-29.57548 0.001,-8.6e-4 c 0.11669,-0.0418 27.82222,-10.0769 27.82222,-10.0769 l 1e-4,1.2e-4 c 0.0323,0.04128 18.18198,23.34808 18.18198,23.34808 l -2.2e-4,-3e-5 c -0.0585,0.0862 -16.58641,24.50665 -16.58641,24.50665 l -1.1e-4,-1e-5 c -0.0503,-0.0143 -28.43302,-8.20146 -28.43302,-8.20146"
         style="fill:#339f2e;fill-opacity:1;stroke:#ffffff;stroke-width:0.2;stroke-dasharray:none;stroke-opacity:1"
         id="path9" />
      <path
         d="m 171.9319,85.837279 1.04304,-22.00723 9.8e-4,-6.4e-4 c 0.10448,-0.0285 21.2516,-5.8088 21.2516,-5.8088 l 8e-5,2e-5 c 0.017,0.0265 12.09195,18.41769 12.09195,18.41769 l -1.6e-4,-4e-5 c -0.0389,0.0489 -13.77923,17.19132 -13.77923,17.19132 l -8e-5,-2e-5 c -0.0291,-0.0112 -20.60818,-7.7923 -20.60818,-7.7923"
         style="fill:#3ba025;fill-opacity:1;stroke:#ffffff;stroke-width:0.2;stroke-dasharray:none;stroke-opacity:1"
         id="path10" />
      <path
         d="m 116.26508,71.854779 -9.74829,-13.27912 2.6e-4,-8.5e-4 c 0.0544,-0.075 9.61625,-13.37435 9.61625,-13.37435 l 5e-5,-3e-5 c 0.0166,0.005 15.69215,5.01324 15.69215,5.01324 l -5e-5,2e-5 c 1.2e-4,0.0349 0.0814,16.47301 0.0814,16.47301 l -5e-5,3e-5 c -0.0162,0.006 -15.64167,5.16805 -15.64167,5.16805"
         style="fill:#44a11b;fill-opacity:1;stroke:#ffffff;stroke-width:0.2;stroke-dasharray:none;stroke-opacity:1"
         id="path11" />
      <path
         d="m 178.02321,160.91535 10.8438,9.58385 -7e-5,7.7e-4 c -0.0368,0.0842 -5.76342,13.27429 -5.76342,13.27429 v 0 c -0.0101,-8.6e-4 -14.40642,-1.37966 -14.40642,-1.37966 l 5e-5,-3e-5 c -0.004,-0.0198 -3.13968,-14.12737 -3.13968,-14.12737 l 4e-5,-3e-5 c 0.009,-0.005 12.4657,-7.35182 12.4657,-7.35182"
         style="fill:#4ca212;fill-opacity:1;stroke:#ffffff;stroke-width:0.2;stroke-dasharray:none;stroke-opacity:1"
         id="path12" />
      <path
         d="m 27.910066,117.25596 13.69409,-18.102911 10e-4,3e-5 c 0.15055,0.0526 21.44797,7.429111 21.44797,7.429111 v 0 c -1.6e-4,0.008 -0.43806,22.69528 -0.43806,22.69528 v 0 c -0.0154,0.005 -21.71948,6.59647 -21.71948,6.59647 v 0 c -0.005,-0.006 -12.98573,-18.61798 -12.98573,-18.61798"
         style="fill:#55a309;fill-opacity:1;stroke:#ffffff;stroke-width:0.2;stroke-dasharray:none;stroke-opacity:1"
         id="path13" />
      <path
         d="m 68.633226,180.89255 -18.67413,-3.03388 -4.6e-4,-9e-4 -2.88546,-18.69698 v 0 l 16.89134,-8.52218 v 0 l 13.32453,13.43089 v 0 z"
         style="fill:#5ea500;fill-opacity:1;stroke:#ffffff;stroke-width:0.2;stroke-dasharray:none;stroke-opacity:1"
         id="path14" />
      <path
         d="m 175.15154,254.79507 5.08025,-19.02105 9.8e-4,-4e-4 c 0.1106,-0.005 19.65929,-1.04652 19.65929,-1.04652 l 7e-5,3e-5 c 0.008,0.0192 7.07044,18.37485 7.07044,18.37485 l -5e-5,-3e-5 c -0.0324,0.0262 -15.29027,12.40245 -15.29027,12.40245 l -7e-5,-3e-5 c -0.0177,-0.0106 -16.5206,-10.70925 -16.5206,-10.70925"
         style="fill:#44a11b;fill-opacity:1;stroke:#ffffff;stroke-width:0.2;stroke-dasharray:none;stroke-opacity:1"
         id="path15" />
      <path
         d="m 161.20019,57.207209 -1.44909,-9.75606 v -8e-5 c 0.0186,-0.009 8.83071,-4.39308 8.83071,-4.39308 l 7e-5,7e-5 c 0.0194,0.02 6.90688,7.04101 6.90688,7.04101 l -1.6e-4,3e-4 c -0.0257,0.0493 -4.56194,8.74436 -4.56194,8.74436 h -8e-5 c -0.0275,-0.004 -9.72639,-1.63652 -9.72639,-1.63652"
         style="fill:#199c4a;fill-opacity:1;stroke:#ffffff;stroke-width:0.2;stroke-dasharray:none;stroke-opacity:1"
         id="path16" />
    </g>
  </g>
</svg>
