<?xml version="1.0" encoding="UTF-8" standalone="no"?>
<!-- Created with Inkscape (http://www.inkscape.org/) -->

<svg
   width="179.79689mm"
   height="235.86324mm"
   viewBox="0 0 179.79689 235.86324"
   version="1.1"
   id="svg1"
   sodipodi:docname="pentagons-1.svg"
   inkscape:version="1.4 (e7c3feb100, 2024-10-09)"
   xmlns:inkscape="http://www.inkscape.org/namespaces/inkscape"
   xmlns:sodipodi="http://sodipodi.sourceforge.net/DTD/sodipodi-0.dtd"
   xmlns="http://www.w3.org/2000/svg"
   xmlns:svg="http://www.w3.org/2000/svg">
  <sodipodi:namedview
     id="namedview1"
     pagecolor="#ffffff"
     bordercolor="#000000"
     borderopacity="0.25"
     inkscape:showpageshadow="2"
     inkscape:pageopacity="0.0"
     inkscape:pagecheckerboard="0"
     inkscape:deskcolor="#d1d1d1"
     inkscape:document-units="mm"
     inkscape:zoom="1.0529882"
     inkscape:cx="372.74871"
     inkscape:cy="557.46113"
     inkscape:window-width="2560"
     inkscape:window-height="1403"
     inkscape:window-x="0"
     inkscape:window-y="0"
     inkscape:window-maximized="1"
     inkscape:current-layer="g14" />
  <defs
     id="defs1" />
  <g
     inkscape:label="Layer 1"
     inkscape:groupmode="layer"
     id="layer1"
     transform="translate(-27.428235,-55.708098)">
    <g
       id="g14"
       transform="translate(-0.50253808,21.609137)">
      <path
         d="m 187.78734,72.244943 -29.47433,32.729997 v 0 l -40.23622,-17.916891 5e-5,-4.66e-4 4.60643,-43.803496 0.002,-6.12e-4 43.08162,-9.154514 3.1e-4,3.88e-4 z"
         style="fill:#009966;fill-opacity:1;stroke:#ffffff;stroke-width:0.2;stroke-opacity:1;stroke-dasharray:none"
         id="path3" />
      <path
         d="m 48.998645,145.5884 11.549361,17.44337 3.3e-5,8e-5 c -0.0094,0.0117 -13.020426,16.37456 -13.020426,16.37456 l -2.02e-4,-8e-5 c -0.06928,-0.0259 -19.596638,-7.32319 -19.596638,-7.32319 l 3.7e-5,-8.8e-4 c 0.0064,-0.1473 0.909114,-20.89983 0.909114,-20.89983 l 2.19e-4,-1e-4 c 0.07133,-0.0198 20.158502,-5.59393 20.158502,-5.59393"
         style="fill:#089a5c;fill-opacity:1;stroke:#ffffff;stroke-width:0.2;stroke-opacity:1;stroke-dasharray:none"
         id="path4" />
      <path
         d="m 84.108964,117.00003 -30.386422,-12.09525 -1.06e-4,-6e-5 c 0.0029,-0.0457 2.112821,-32.636715 2.112821,-32.636715 l 3.39e-4,-8.6e-5 c 0.100876,-0.02571 31.692354,-8.075722 31.692354,-8.075722 l 6.93e-4,9.87e-4 c 0.110753,0.175376 17.473267,27.644858 17.473267,27.644858 l -1.2e-4,2.12e-4 c -0.0666,0.08014 -20.892837,25.161766 -20.892837,25.161766"
         style="fill:#119b53;fill-opacity:1;stroke:#ffffff;stroke-width:0.2;stroke-opacity:1;stroke-dasharray:none"
         id="path5" />
      <path
         d="m 140.77972,181.29471 16.28596,2.47675 1.2e-4,3e-5 c 0.006,0.0344 2.67735,16.25418 2.67735,16.25418 l -1.5e-4,8e-5 c -0.0414,0.0213 -14.63136,7.56906 -14.63136,7.56906 l -4e-4,-4e-4 c -0.066,-0.0653 -11.71957,-11.57597 -11.71957,-11.57597 l 4e-5,-1.1e-4 c 0.0206,-0.0417 7.38801,-14.72362 7.38801,-14.72362"
         style="fill:#199c4a;fill-opacity:1;stroke:#ffffff;stroke-width:0.2;stroke-opacity:1;stroke-dasharray:none"
         id="path6" />
      <path
         d="m 109.99345,169.9171 12.86502,34.3794 6e-5,2.7e-4 c -0.0816,0.0646 -28.720577,22.85959 -28.720577,22.85959 l -1.9e-4,-2.5e-4 c -0.0758,-0.05 -30.615861,-20.25114 -30.615861,-20.25114 l 2.08e-4,-0.001 c 0.04833,-0.17452 9.799108,-35.37449 9.799108,-35.37449 l 2.75e-4,-6e-5 c 0.09067,-0.004 36.671957,-1.61228 36.671957,-1.61228"
         style="fill:#229d40;fill-opacity:1;stroke:#ffffff;stroke-width:0.2;stroke-opacity:1;stroke-dasharray:none"
         id="path7" />
      <path
         d="m 137.3309,131.61401 -7.20147,25.48128 -9e-5,1.8e-4 c -0.094,0.003 -26.45929,1.02565 -26.45929,1.02565 l -1e-5,-2.2e-4 c -0.0195,-0.0527 -9.151648,-24.84756 -9.151648,-24.84756 l 5.24e-4,-4.2e-4 c 0.08791,-0.0692 20.802914,-16.38158 20.802914,-16.38158 l 1.8e-4,8e-5 c 0.0466,0.0314 22.00889,14.72259 22.00889,14.72259"
         style="fill:#2a9e37;fill-opacity:1;stroke:#ffffff;stroke-width:0.2;stroke-opacity:1;stroke-dasharray:none"
         id="path8" />
      <path
         d="m 189.18514,230.30896 0.98567,29.57548 -10e-4,8.6e-4 c -0.11669,0.0418 -27.82222,10.0769 -27.82222,10.0769 l -1e-4,-1.2e-4 C 162.31522,269.9208 144.16551,246.614 144.16551,246.614 l 2.2e-4,3e-5 c 0.0585,-0.0862 16.58641,-24.50665 16.58641,-24.50665 l 1.1e-4,1e-5 c 0.0503,0.0143 28.43302,8.20146 28.43302,8.20146"
         style="fill:#339f2e;fill-opacity:1;stroke:#ffffff;stroke-width:0.2;stroke-opacity:1;stroke-dasharray:none"
         id="path9" />
      <path
         d="m 63.705623,218.23113 -1.04304,22.00723 -9.81e-4,6.4e-4 c -0.104476,0.0285 -21.251594,5.8088 -21.251594,5.8088 l -8.8e-5,-2e-5 c -0.01698,-0.0265 -12.091948,-18.41769 -12.091948,-18.41769 l 1.67e-4,4e-5 c 0.03893,-0.0489 13.77923,-17.19132 13.77923,-17.19132 l 7.8e-5,2e-5 c 0.02914,0.0112 20.608176,7.7923 20.608176,7.7923"
         style="fill:#3ba025;fill-opacity:1;stroke:#ffffff;stroke-width:0.2;stroke-opacity:1;stroke-dasharray:none"
         id="path10" />
      <path
         d="m 119.37245,232.21363 9.74829,13.27912 -2.6e-4,8.5e-4 c -0.0544,0.075 -9.61625,13.37435 -9.61625,13.37435 l -5e-5,3e-5 c -0.0166,-0.005 -15.69215,-5.01324 -15.69215,-5.01324 l 5e-5,-2e-5 c -1.2e-4,-0.0349 -0.0814,-16.47301 -0.0814,-16.47301 l 5e-5,-3e-5 c 0.0162,-0.006 15.64167,-5.16805 15.64167,-5.16805"
         style="fill:#44a11b;fill-opacity:1;stroke:#ffffff;stroke-width:0.2;stroke-opacity:1;stroke-dasharray:none"
         id="path11" />
      <path
         d="m 57.614317,143.15306 -10.843806,-9.58385 7.3e-5,-7.7e-4 c 0.03679,-0.0842 5.763424,-13.27429 5.763424,-13.27429 v 0 c 0.01013,8.6e-4 14.406415,1.37966 14.406415,1.37966 l -4.2e-5,3e-5 c 0.0044,0.0198 3.139681,14.12737 3.139681,14.12737 l -4.2e-5,3e-5 c -0.0088,0.005 -12.465703,7.35182 -12.465703,7.35182"
         style="fill:#4ca212;fill-opacity:1;stroke:#ffffff;stroke-width:0.2;stroke-opacity:1;stroke-dasharray:none"
         id="path12" />
      <path
         d="m 207.72746,186.81245 -13.69409,18.10291 -0.001,-3e-5 c -0.15055,-0.0526 -21.44797,-7.42911 -21.44797,-7.42911 v 0 c 1.6e-4,-0.008 0.43806,-22.69528 0.43806,-22.69528 v 0 c 0.0154,-0.005 21.71948,-6.59647 21.71948,-6.59647 v 0 c 0.005,0.006 12.98573,18.61798 12.98573,18.61798"
         style="fill:#55a309;fill-opacity:1;stroke:#ffffff;stroke-width:0.2;stroke-opacity:1;stroke-dasharray:none"
         id="path13" />
      <path
         d="m 167.0043,123.17586 18.67413,3.03388 4.6e-4,9e-4 2.88546,18.69698 v 0 l -16.89134,8.52218 v 0 l -13.32453,-13.43089 v 0 z"
         style="fill:#5ea500;fill-opacity:1;stroke:#ffffff;stroke-width:0.2;stroke-opacity:1;stroke-dasharray:none"
         id="path14" />
      <path
         d="m 60.485987,49.273336 -5.080251,19.021056 -9.86e-4,3.93e-4 c -0.110599,0.0054 -19.659288,1.04652 -19.659288,1.04652 l -6.5e-5,-2.4e-5 c -0.0078,-0.01921 -7.070446,-18.374857 -7.070446,-18.374857 l 5.5e-5,3.1e-5 c 0.03244,-0.02622 15.290271,-12.402446 15.290271,-12.402446 l 6.6e-5,2.5e-5 c 0.01771,0.01064 16.520606,10.709256 16.520606,10.709256"
         style="fill:#44a11b;fill-opacity:1;stroke:#ffffff;stroke-width:0.2;stroke-opacity:1;stroke-dasharray:none"
         id="path15" />
      <path
         d="m 74.437336,246.8612 1.449087,9.75606 2e-6,8e-5 c -0.01863,0.009 -8.830705,4.39308 -8.830705,4.39308 l -7.4e-5,-7e-5 c -0.01943,-0.02 -6.906878,-7.04101 -6.906878,-7.04101 l 1.59e-4,-3e-4 c 0.02575,-0.0493 4.56194,-8.74436 4.56194,-8.74436 l 7.4e-5,0 c 0.02752,0.004 9.726395,1.63652 9.726395,1.63652"
         style="fill:#199c4a;fill-opacity:1;stroke:#ffffff;stroke-width:0.2;stroke-opacity:1;stroke-dasharray:none"
         id="path16" />
    </g>
  </g>
</svg>
